<svg width="273" height="82" viewBox="0 0 273 82" fill="none" xmlns="http://www.w3.org/2000/svg">
<g clip-path="url(#clip0)">
<path d="M138.32 37.94C138.27 38.0321 138.23 38.1293 138.2 38.23C137.47 38.23 135.53 38.13 133.59 38.23C133.514 38.173 133.43 38.1291 133.34 38.1C132.321 35.2999 131.003 32.6178 129.41 30.1C128.841 30.5812 128.224 31.0034 127.57 31.36C127.256 31.5033 126.952 31.667 126.66 31.85C126.697 33.8994 126.841 35.9454 127.09 37.98C127.023 38.0407 126.965 38.1116 126.92 38.19C126.55 38.19 125.65 38.11 124.92 38.11C124.19 38.11 123.49 38.16 123.15 38.18C123.107 38.1147 123.056 38.0543 123 38C123 38 123.25 33.59 123.25 29.28C123.25 24.97 123 20.54 123 20.54C123.056 20.4851 123.106 20.4248 123.15 20.36C123.47 20.36 124.23 20.43 124.95 20.43C125.67 20.43 126.43 20.43 126.76 20.36C126.804 20.4248 126.854 20.4851 126.91 20.54C126.91 20.54 126.68 23.94 126.66 28.54C127.584 27.943 128.407 27.2039 129.1 26.35C130.599 24.6273 131.756 22.6352 132.51 20.48C132.598 20.4446 132.676 20.3899 132.74 20.32C134.053 20.4554 135.377 20.4554 136.69 20.32C136.717 20.3863 136.751 20.4499 136.79 20.51C135.529 23.2721 133.819 25.8064 131.73 28.01C132.6 29.5 135.21 33.57 138.32 37.94ZM209 20.68L208.85 20.5C208.53 20.5 207.77 20.57 207.07 20.57C206.37 20.57 205.59 20.52 205.27 20.5L205.13 20.68C205.13 20.68 205.32 24.1 205.37 27.89C204.37 27.89 203.21 27.95 201.91 27.95C200.61 27.95 199.44 27.95 198.47 27.89C198.47 23.68 198.71 20.68 198.71 20.68C198.654 20.6251 198.604 20.5648 198.56 20.5C198.24 20.5 197.48 20.57 196.77 20.57C196.06 20.57 195.3 20.52 194.98 20.5C194.936 20.5648 194.886 20.6251 194.83 20.68C194.83 20.68 195 25 195 29.34C195 33.68 194.75 38 194.75 38C194.82 38.0531 194.881 38.1173 194.93 38.19C195.26 38.19 196 38.12 196.69 38.12C197.38 38.12 198.3 38.17 198.69 38.19L198.85 37.98C198.568 35.6069 198.421 33.2197 198.41 30.83H205.3C205.3 34.58 205.07 38 205.07 38C205.139 38.0506 205.197 38.1154 205.24 38.19C205.58 38.19 206.31 38.12 207.01 38.12C207.71 38.12 208.61 38.17 209.01 38.19C209.057 38.1153 209.11 38.045 209.17 37.98C208.837 35.1124 208.687 32.2266 208.72 29.34C208.71 24.39 209 20.68 209 20.68V20.68ZM145.22 23.4V27.95C145.22 31.4 145.01 36.95 144.97 38.02C145.043 38.0686 145.11 38.1257 145.17 38.19C145.51 38.19 146.23 38.12 146.91 38.12C147.59 38.12 148.37 38.17 148.7 38.19C148.741 38.1173 148.792 38.0501 148.85 37.99C148.8 36.84 148.6 31.36 148.6 27.99V23.44C151.7 23.44 153.01 23.53 153.41 23.56L153.54 23.41C153.48 22.95 153.33 21.54 153.31 20.54C153.262 20.4966 153.222 20.446 153.19 20.39C152.62 20.39 150.06 20.58 146.88 20.58C143.7 20.58 141.31 20.44 140.63 20.4C140.577 20.4639 140.517 20.521 140.45 20.57C140.45 21.57 140.28 22.94 140.22 23.41C140.279 23.4496 140.33 23.5006 140.37 23.56C140.85 23.49 142.17 23.42 145.22 23.4ZM261.29 17.89C263.544 17.6499 265.816 17.6499 268.07 17.89C268.105 17.8362 268.145 17.786 268.19 17.74C268.319 16.7722 268.509 15.8136 268.76 14.87L268.65 14.73C268.36 14.73 267.35 14.85 264.65 14.85C261.95 14.85 260.97 14.76 260.65 14.73L260.54 14.87C260.791 15.8136 260.981 16.7722 261.11 17.74C261.176 17.7828 261.236 17.8331 261.29 17.89V17.89ZM228.07 20.68L227.92 20.5C227.6 20.5 226.84 20.57 226.14 20.57C225.44 20.57 224.66 20.52 224.34 20.5L224.2 20.68C224.2 20.68 224.39 24.1 224.43 27.89C223.43 27.89 222.28 27.95 220.98 27.95C219.68 27.95 218.5 27.95 217.54 27.89C217.54 23.68 217.78 20.68 217.78 20.68C217.724 20.6251 217.674 20.5648 217.63 20.5C217.3 20.5 216.55 20.57 215.84 20.57C215.13 20.57 214.37 20.52 214.05 20.5C214.006 20.5648 213.956 20.6251 213.9 20.68C213.9 20.68 214.15 25.03 214.15 29.34C214.15 33.65 213.9 38 213.9 38C213.97 38.0531 214.031 38.1173 214.08 38.19C214.41 38.19 215.15 38.12 215.84 38.12C216.53 38.12 217.45 38.17 217.84 38.19L218 38C217.718 35.6269 217.571 33.2397 217.56 30.85H224.45C224.45 34.6 224.22 38.02 224.22 38.02C224.287 38.0734 224.344 38.1376 224.39 38.21C224.73 38.21 225.46 38.14 226.16 38.14C226.86 38.14 227.76 38.19 228.16 38.21C228.207 38.1353 228.26 38.065 228.32 38C227.987 35.1324 227.837 32.2466 227.87 29.36C227.83 24.39 228.07 20.68 228.07 20.68V20.68ZM159.63 60.82C159.785 61.75 159.988 62.6713 160.24 63.58C160.178 63.6395 160.125 63.7067 160.08 63.78C159.08 63.78 154.54 63.65 150.01 63.65C145.48 63.65 141.01 63.76 139.93 63.78C139.889 63.7045 139.835 63.6368 139.77 63.58C140.026 62.6718 140.233 61.7505 140.39 60.82C140.484 60.7641 140.569 60.6932 140.64 60.61H142.4C145.33 55 147.77 49.38 148.4 47.8C148.21 47.33 148.08 46.98 147.99 46.8C148.057 46.7078 148.111 46.6069 148.15 46.5C149.198 46.2039 150.227 45.8432 151.23 45.42C151.333 45.4708 151.445 45.5014 151.56 45.51C151.88 46.51 152.95 49.43 154.24 52.89C155.13 55.24 156.47 58.39 157.48 60.63H159.32C159.412 60.7102 159.517 60.7745 159.63 60.82V60.82ZM150.01 60.82H153.26C152.67 59.03 151.86 56.66 151.07 54.6C150.67 53.6 150.31 52.65 149.97 51.79C148.33 55.23 146.82 58.57 145.82 60.79C147.28 60.77 148.8 60.79 150 60.79L150.01 60.82ZM81.35 45.72C79.7401 45.8496 78.1243 45.8897 76.51 45.84H73.46C72.75 45.84 71.98 45.84 71.67 45.77C71.626 45.8348 71.5758 45.8951 71.52 45.95C71.52 45.95 71.77 50.3 71.77 54.62C71.77 58.94 71.52 63.27 71.52 63.27C71.5875 63.3257 71.648 63.3895 71.7 63.46C72.03 63.46 72.77 63.39 73.46 63.39C74.15 63.39 75.07 63.39 75.46 63.47C75.5076 63.3927 75.5611 63.3191 75.62 63.25C75.2867 60.3858 75.1364 57.5033 75.17 54.62C75.17 52.27 75.17 50.2 75.23 48.67C78.03 48.67 80.49 48.81 81.13 48.85C81.1839 48.7863 81.2481 48.7322 81.32 48.69C81.32 47.69 81.47 46.36 81.53 45.87C81.4619 45.8306 81.401 45.7799 81.35 45.72V45.72ZM111.77 35.22C111.77 33.86 111.69 32.22 111.68 30.59C113.8 30.59 115.21 30.72 115.68 30.75C115.723 30.6959 115.773 30.6487 115.83 30.61C115.77 30.15 115.62 28.75 115.61 27.75C115.535 27.7115 115.468 27.6608 115.41 27.6C114.91 27.66 113.53 27.79 111.69 27.86V23.48C115.59 23.48 117.41 23.56 117.91 23.6C117.956 23.5307 118.013 23.4699 118.08 23.42C118.02 22.93 117.88 21.57 117.86 20.6C117.791 20.5576 117.73 20.5035 117.68 20.44C117.03 20.44 114.51 20.62 111.68 20.62H110.46C109.78 20.62 108.9 20.55 108.46 20.52C108.379 20.6001 108.284 20.6645 108.18 20.71C108.18 21.71 108.42 26 108.42 29.35C108.42 32.7 108.23 36.96 108.18 37.99C108.259 38.0472 108.327 38.1184 108.38 38.2L109.8 38.11C110.9 38.05 111.91 38.11 111.91 38.11C116.01 38.11 117.83 38.19 118.29 38.22L118.43 38.08C118.43 36.75 118.72 35.08 118.72 35.08C118.66 35.0296 118.609 34.9686 118.57 34.9C117.89 34.85 114.71 35.21 111.77 35.22V35.22ZM169.6 26.68C169.6 31.58 165.94 33.03 163.12 33.03C162.339 33.0331 161.56 32.9424 160.8 32.76C160.86 35.18 160.92 37.36 160.94 38.01C160.882 38.0627 160.831 38.1233 160.79 38.19C160.47 38.19 159.71 38.12 159 38.12C158.29 38.12 157.55 38.17 157.22 38.19C157.175 38.1202 157.121 38.0564 157.06 38C157.11 37 157.3 32.72 157.3 29.34C157.3 25.96 157.1 21.78 157.06 20.88C157.109 20.8172 157.153 20.7503 157.19 20.68C157.36 20.68 157.65 20.63 158 20.61C159.347 20.446 160.703 20.3558 162.06 20.34C166.82 20.34 169.6 23 169.6 26.68ZM165.93 26.79C165.76 23.02 162.61 22.89 160.66 23.27C160.66 24.36 160.66 25.89 160.74 27.67C160.74 28.38 160.74 29.17 160.79 29.98C164.29 31.14 166 29.37 165.93 26.79ZM251.69 20.68C251.634 20.6251 251.584 20.5648 251.54 20.5C251.21 20.5 250.46 20.57 249.75 20.57C249.04 20.57 248.27 20.52 247.96 20.5C247.916 20.5648 247.866 20.6251 247.81 20.68C247.81 20.68 248.06 25.03 248.06 29.34C248.06 33.65 247.81 38 247.81 38C247.88 38.0531 247.941 38.1173 247.99 38.19C248.32 38.19 249.06 38.12 249.75 38.12C250.44 38.12 251.36 38.17 251.75 38.19L251.91 37.98C251.577 35.1124 251.427 32.2266 251.46 29.34C251.44 24.39 251.69 20.68 251.69 20.68V20.68ZM245.35 32C245.35 35.7 242.57 38.34 237.81 38.34C236.44 38.34 234.94 38.2 233.99 38.1C233.45 38.1 232.99 38.02 232.72 37.99C232.686 37.9207 232.642 37.8567 232.59 37.8C232.59 36.9 232.84 32.72 232.84 29.33C232.84 25.94 232.64 21.64 232.59 20.67C232.654 20.6161 232.708 20.5519 232.75 20.48C233.08 20.48 233.83 20.56 234.53 20.56C235.23 20.56 236 20.56 236.32 20.48C236.361 20.5498 236.412 20.6137 236.47 20.67C236.47 21.32 236.39 23.53 236.33 25.99H236.41C237.212 25.7765 238.04 25.6722 238.87 25.68C241.69 25.65 245.35 27.1 245.35 32V32ZM236.27 28.77C236.27 28.77 236.27 30.19 236.22 31C236.22 32.77 236.16 34.3 236.14 35.39C236.229 35.3751 236.321 35.3751 236.41 35.39C238.41 35.76 241.51 35.64 241.67 31.87C241.79 29.31 240 27.48 236.27 28.77V28.77ZM191.12 28.97C191.192 30.7915 190.722 32.5934 189.769 34.1471C188.815 35.7009 187.422 36.9363 185.765 37.6968C184.108 38.4572 182.263 38.7083 180.463 38.4183C178.664 38.1282 176.991 37.31 175.657 36.0676C174.323 34.8251 173.388 33.2144 172.971 31.4398C172.554 29.6652 172.674 27.8067 173.315 26.1002C173.956 24.3937 175.089 22.9162 176.572 21.855C178.054 20.7938 179.818 20.1969 181.64 20.14C182.844 20.0986 184.045 20.295 185.174 20.7179C186.302 21.1409 187.336 21.7822 188.216 22.605C189.097 23.4279 189.807 24.4162 190.305 25.5135C190.803 26.6108 191.08 27.7955 191.12 29V28.97ZM187.24 28.12C187.113 27.3935 186.844 26.6992 186.449 26.0767C186.053 25.4542 185.539 24.9158 184.935 24.4923C184.332 24.0688 183.65 23.7684 182.931 23.6084C182.211 23.4485 181.466 23.432 180.74 23.56C179.291 23.9221 178.043 24.8416 177.268 26.1186C176.492 27.3957 176.252 28.9271 176.6 30.38C176.719 31.1124 176.982 31.814 177.374 32.4439C177.766 33.0739 178.279 33.6196 178.884 34.0495C179.488 34.4793 180.173 34.7847 180.896 34.9479C181.62 35.1111 182.369 35.1288 183.1 35C183.824 34.821 184.506 34.5009 185.106 34.058C185.706 33.6151 186.213 33.0582 186.598 32.4191C186.982 31.7799 187.237 31.0712 187.347 30.3335C187.457 29.5958 187.421 28.8436 187.24 28.12V28.12ZM138.75 54.4C138.824 56.2242 138.355 58.0294 137.402 59.5863C136.448 61.1432 135.053 62.3816 133.394 63.1441C131.735 63.9066 129.887 64.1589 128.085 63.8688C126.282 63.5788 124.606 62.7596 123.27 61.5152C121.934 60.2708 120.998 58.6574 120.581 56.88C120.164 55.1025 120.285 53.2412 120.928 51.5324C121.571 49.8236 122.707 48.3445 124.192 47.2828C125.678 46.2212 127.445 45.625 129.27 45.57C131.697 45.4863 134.059 46.369 135.836 48.0244C137.613 49.6798 138.661 51.9728 138.75 54.4ZM134.86 53.55C134.734 52.8226 134.466 52.1272 134.071 51.5036C133.676 50.88 133.162 50.3404 132.559 49.9159C131.955 49.4914 131.273 49.1902 130.553 49.0295C129.832 48.8689 129.087 48.8521 128.36 48.98C126.912 49.3465 125.666 50.2689 124.893 51.5473C124.12 52.8257 123.882 54.3572 124.23 55.81C124.354 56.5379 124.622 57.2341 125.016 57.8584C125.411 58.4827 125.925 59.0227 126.529 59.4475C127.133 59.8722 127.815 60.1733 128.536 60.3333C129.257 60.4934 130.003 60.5092 130.73 60.38C132.18 60.0158 133.427 59.0938 134.2 57.8148C134.974 56.5357 135.211 55.003 134.86 53.55V53.55ZM101.1 54.4C101.174 56.2242 100.705 58.0294 99.7515 59.5863C98.7979 61.1432 97.4031 62.3816 95.7442 63.1441C94.0853 63.9066 92.2372 64.1589 90.4346 63.8688C88.632 63.5788 86.9563 62.7596 85.6204 61.5152C84.2844 60.2708 83.3484 58.6574 82.9313 56.88C82.5141 55.1025 82.6347 53.2412 83.2777 51.5324C83.9206 49.8236 85.057 48.3445 86.5423 47.2828C88.0277 46.2212 89.7951 45.625 91.62 45.57C92.8223 45.5272 94.0212 45.7217 95.1483 46.1423C96.2754 46.5629 97.3087 47.2014 98.189 48.0214C99.0693 48.8413 99.7795 49.8267 100.279 50.9211C100.778 52.0156 101.057 53.1977 101.1 54.4V54.4ZM97.22 53.55C96.959 52.0859 96.1284 50.7849 94.9101 49.932C93.6917 49.0792 92.185 48.744 90.72 49C89.2699 49.3644 88.0219 50.2858 87.2469 51.5645C86.4718 52.8431 86.2322 54.3758 86.58 55.83C86.7044 56.5579 86.9716 57.2541 87.3662 57.8784C87.7608 58.5027 88.2749 59.0427 88.8791 59.4675C89.4832 59.8922 90.1654 60.1933 90.8864 60.3533C91.6074 60.5134 92.3529 60.5292 93.08 60.4C94.5345 60.0358 95.7859 59.1113 96.5615 57.8281C97.337 56.5448 97.5738 55.007 97.22 53.55V53.55ZM77 38.35C78.1978 38.4102 79.3949 38.2186 80.5141 37.7877C81.6333 37.3567 82.6498 36.6958 83.4978 35.8478C84.3458 34.9997 85.0067 33.9833 85.4377 32.8641C85.8687 31.7449 86.0602 30.5478 86 29.35C86.0002 28.1536 85.7619 26.9693 85.299 25.8661C84.8361 24.7629 84.158 23.7631 83.3041 22.9252C82.4503 22.0872 81.438 21.4278 80.3264 20.9856C79.2147 20.5435 78.0261 20.3274 76.83 20.35C75.1341 20.3444 73.4673 20.7896 72 21.64V24.77C72.0804 24.7895 72.1577 24.8198 72.23 24.86C73.0293 24.1632 73.9765 23.6571 75 23.38C75.7638 23.1902 76.5581 23.1569 77.3351 23.2824C78.1121 23.4078 78.8556 23.6892 79.5209 24.1097C80.1862 24.5301 80.7594 25.081 81.2061 25.7289C81.6528 26.3769 81.9637 27.1086 82.12 27.88C79.35 27.88 76.32 27.66 75.67 27.59C75.6118 27.6477 75.5442 27.695 75.47 27.73C75.47 28.73 75.31 30.1 75.26 30.55C75.3115 30.5915 75.3584 30.6385 75.4 30.69C75.98 30.69 79 30.51 82.24 30.5C82.1565 31.5724 81.7593 32.5965 81.0978 33.4448C80.4363 34.293 79.5398 34.9278 78.52 35.27C76.844 35.7421 75.05 35.5412 73.52 34.71C72.8961 34.2935 72.3164 33.8144 71.79 33.28L71.56 33.35V35.06C71.56 35.85 71.5 36.71 71.5 36.71C73.1254 37.8001 75.043 38.3719 77 38.35V38.35ZM272.44 27.88C272.44 24.61 272.5 21.52 272.51 20.71C272.442 20.6508 272.382 20.5836 272.33 20.51C272.04 20.51 271.42 20.58 270.75 20.58C270.08 20.58 269.41 20.58 269.15 20.51H268.97C268.54 21.18 265.91 25.29 264.24 27.63C263.24 29.04 261.56 31.35 260.24 33.13V30.73C260.24 27.29 260.45 21.73 260.49 20.66C260.415 20.618 260.347 20.564 260.29 20.5C259.94 20.5 259.22 20.57 258.55 20.57C257.88 20.57 257.08 20.52 256.76 20.5C256.719 20.5727 256.668 20.6399 256.61 20.7C256.61 21.85 256.86 27.33 256.86 30.7C256.86 34.07 256.8 37.07 256.79 37.88C256.858 37.9392 256.918 38.0063 256.97 38.08C257.26 38.08 257.88 38.01 258.55 38.01C259.22 38.01 259.87 38.06 260.14 38.08L260.24 38.02H260.33C260.72 37.42 262.72 35.02 265.89 30.22C267.01 28.53 268.24 26.85 269.05 25.79V27.89C269.05 31.34 268.84 36.89 268.8 37.97C268.875 38.0119 268.943 38.066 269 38.13C269.35 38.13 270.06 38.06 270.74 38.06C271.42 38.06 272.21 38.11 272.53 38.13C272.571 38.0573 272.622 37.9901 272.68 37.93C272.65 36.77 272.44 31.29 272.44 27.88V27.88ZM105.11 37.88C104.48 36.75 101.84 31.25 100.37 27.62C98.98 24.2 97.83 21.27 97.49 20.32C97.3732 20.3111 97.2585 20.2841 97.15 20.24C96.1587 20.6875 95.14 21.0716 94.1 21.39C94.0698 21.5 94.0226 21.6046 93.96 21.7C94.02 21.83 94.1 22.04 94.21 22.29C92.1998 27.6822 89.8243 32.931 87.1 38L87.26 38.15C88.6248 38.0479 89.9952 38.0479 91.36 38.15C91.36 38.15 92.86 33.55 95.73 25.85L97.18 29.29C98.8 33.16 100.48 38.15 100.48 38.15C100.48 38.15 101.48 38.05 102.59 38.05C103.34 38.05 104.59 38.05 104.97 38.13C105.006 38.0474 105.053 37.97 105.11 37.9V37.88ZM117.44 52C117.44 56.9 113.77 58.35 110.95 58.35C110.168 58.3582 109.389 58.2674 108.63 58.08C108.69 60.51 108.75 62.69 108.77 63.33C108.712 63.3863 108.661 63.4502 108.62 63.52C108.3 63.52 107.54 63.44 106.83 63.44C106.12 63.44 105.38 63.44 105.05 63.51C105.005 63.4431 104.951 63.3825 104.89 63.33C104.89 62.33 105.14 58.04 105.14 54.67C105.14 51.3 104.93 47.1 104.89 46.2C104.935 46.1385 104.972 46.0712 105 46L105.81 45.93C107.157 45.766 108.513 45.6758 109.87 45.66C114.65 45.64 117.44 48.28 117.44 52ZM113.76 52.11C113.59 48.34 110.44 48.21 108.49 48.59C108.49 49.68 108.49 51.21 108.57 52.99V55.31C112.12 56.44 113.87 54.67 113.76 52.09V52.11Z" fill="black"/>
<path d="M54.81 54.55C54.81 49.42 42.54 45.26 27.4 45.26C12.26 45.26 0 49.42 0 54.55C0.137115 61.7276 3.08468 68.565 8.20919 73.5925C13.3337 78.6201 20.2261 81.4365 27.405 81.4365C34.5839 81.4365 41.4763 78.6201 46.6008 73.5925C51.7253 68.565 54.6729 61.7276 54.81 54.55Z" fill="#FE403B"/>
<path d="M51.7501 54.55C51.7501 58.43 40.8501 61.55 27.4001 61.55C13.9501 61.55 3.06006 58.41 3.06006 54.55C3.06006 50.69 13.9601 47.55 27.4001 47.55C40.8401 47.55 51.7501 50.7 51.7501 54.55Z" fill="#BBFF00"/>
<path d="M54.81 27.3999C54.6729 20.2223 51.7253 13.385 46.6008 8.35741C41.4763 3.32986 34.5839 0.513428 27.405 0.513428C20.2261 0.513428 13.3337 3.32986 8.20919 8.35741C3.08468 13.385 0.137115 20.2223 0 27.3999C0 32.5299 12.27 36.6899 27.4 36.6899C42.53 36.6899 54.81 32.5299 54.81 27.3999Z" fill="#FE403B"/>
</g>
<defs>
<clipPath id="clip0">
<rect width="272.69" height="81.95" fill="white"/>
</clipPath>
</defs>
</svg>
