<svg viewBox="0 0 20 20" xmlns="http://www.w3.org/2000/svg" width="20px" height="20px"><path d="m12.3228923 12.8476087c.3942387-.3376311.8012285-.5271167 1.4016969-.650921 1.2818229-.2642857 4.5942447 1.2810842 5.2993155 2.2450179.7509021 1.0265917.8891846 2.2831227.0312387 3.3445657-.8672078 1.0710777-1.7836456 1.883423-2.8857024 2.1328165-2.5788576.583591-7.44577588-1.0515253-10.96451306-5.0222645-3.63442154-4.0986249-4.98466585-9.84034874-3.88601192-12.02482185.5304031-1.05460991 1.67096497-2.10741431 2.506947-2.47789902 1.48538365-.65828203 2.72538981-.2530438 3.48722478.73549829.42997698.55792969 1.39216034 4.13683272 1.39216034 4.75409238 0 .72493155-.21865661 1.24649507-.70283979 1.70264715-.09751479.09186931-.5024656.40323391-.87062662.694038.41667908.90086604 1.14582693 2.00685565 1.83547662 2.78388635.71899129.8112512 1.85638945 1.8000455 2.75018075 2.3711865.2669872-.2611049.5307551-.52387.6054532-.5878424zm1.8055612 1.307878c-.2814231.0580237-.378619.103276-.5046178.211183-.0459879.0393846-.7112768.7145475-1.0874141 1.0479053-.2974081.2635827-.7226685.3260463-1.0833112.1591203-1.2098153-.5599717-2.9295558-1.9947074-3.98214016-3.1823583-1.02928086-1.1596938-2.09231092-2.86641701-2.48965001-4.12123559-.11927286-.37667022-.00558268-.78825323.29011977-1.05029623.42249687-.37440456 1.30698955-1.03969865 1.35952126-1.0891891.07731481-.07283878.07428688-.06561625.07428688-.24692298 0-.21072561-.84875787-3.36773523-.97630953-3.53324376-.22975406-.29812436-.50533391-.38818479-1.09274037-.12786207-.42229661.18715048-1.21331209.9173034-1.53053236 1.54803808-.17399752.34596236-.1726043 1.8083563.19621446 3.37670614.51921036 2.20786896 1.63475007 4.43245331 3.39967418 6.42280091 1.72761202 1.9495337 3.69914758 3.2211593 5.73690428 3.9057751 1.4064195.4725083 2.7721135.6095991 3.2895477.4925046.50851-.1150749 1.1849573-.7146888 1.7722266-1.4400173.2071473-.2562809.1757189-.5418612-.0905858-.9059381-.2705156-.369834-2.8241533-1.5612024-3.2811938-1.46697z" fill="#001e35"/></svg>